<svg width="450" height="450" viewBox="0 0 450 450" fill="none" xmlns="http://www.w3.org/2000/svg">
<circle cx="225" cy="225" r="188.5" stroke="#FF7A41" stroke-width="9"/>
<path d="M298.762 265.837C329.431 265.837 354.294 240.975 354.294 210.306C354.294 179.637 329.431 154.774 298.762 154.774C268.093 154.774 243.231 179.637 243.231 210.306C243.231 240.975 268.093 265.837 298.762 265.837Z" fill="#FFB243"/>
<path d="M298.762 265.837C329.431 265.837 354.294 240.975 354.294 210.306C354.294 179.637 329.431 154.774 298.762 154.774C268.093 154.774 243.231 179.637 243.231 210.306C243.231 240.975 268.093 265.837 298.762 265.837Z" fill="url(#paint0_radial_12_99)"/>
<path d="M328.336 226.452H325.482C324.474 202.061 304.386 182.591 279.748 182.591C272.191 182.591 265.066 184.422 258.782 187.667C252.024 163.071 229.501 145 202.758 145C173.23 145 148.848 167.03 145.144 195.549C144.981 195.549 144.819 195.545 144.656 195.545C126.836 195.545 112.335 209.739 111.838 227.442C94.1811 231.453 81 247.242 81 266.116C81 288.021 98.7591 305.78 120.664 305.78H328.336C350.241 305.78 368 288.021 368 266.116C368 244.211 350.241 226.452 328.336 226.452Z" fill="#E6E6E6"/>
<path d="M120.664 296.006C104.183 296.006 90.7743 282.597 90.7743 266.116C90.7743 259.2 93.0656 252.712 97.402 247.349C101.618 242.129 107.516 238.443 114.009 236.97L121.403 235.292L121.617 227.712C121.784 221.697 124.257 216.064 128.579 211.853C132.906 207.638 138.618 205.314 144.665 205.314L153.724 205.44L154.844 196.804C157.953 172.84 178.557 154.77 202.762 154.77C224.458 154.77 243.621 169.359 249.361 190.255L252.554 201.879L263.267 196.349C268.389 193.704 273.938 192.365 279.748 192.365C289.099 192.365 297.963 195.935 304.702 202.419C311.423 208.884 315.336 217.561 315.717 226.852L316.103 236.222H328.336C344.817 236.222 358.226 249.631 358.226 266.112C358.226 282.593 344.817 296.001 328.336 296.001H120.664V296.006Z" fill="url(#paint1_linear_12_99)"/>
<defs>
<radialGradient id="paint0_radial_12_99" cx="0" cy="0" r="1" gradientUnits="userSpaceOnUse" gradientTransform="translate(253.051 170.804) scale(134.191 134.191)">
<stop stop-color="#FED667"/>
<stop offset="0.14" stop-color="#FEDE87" stop-opacity="0.79"/>
<stop offset="0.31" stop-color="#FEE8AB" stop-opacity="0.55"/>
<stop offset="0.48" stop-color="#FEF0C9" stop-opacity="0.35"/>
<stop offset="0.64" stop-color="#FEF6E0" stop-opacity="0.2"/>
<stop offset="0.78" stop-color="#FEFBF1" stop-opacity="0.09"/>
<stop offset="0.91" stop-color="#FEFEFB" stop-opacity="0.02"/>
<stop offset="1" stop-color="white" stop-opacity="0"/>
</radialGradient>
<linearGradient id="paint1_linear_12_99" x1="31.7801" y1="309.262" x2="283.322" y2="218.393" gradientUnits="userSpaceOnUse">
<stop stop-color="#CCCCCC"/>
<stop offset="0.13" stop-color="#CDCDCD" stop-opacity="0.98"/>
<stop offset="0.27" stop-color="#D0D0D0" stop-opacity="0.92"/>
<stop offset="0.42" stop-color="#D5D5D5" stop-opacity="0.81"/>
<stop offset="0.56" stop-color="#DCDCDC" stop-opacity="0.67"/>
<stop offset="0.71" stop-color="#E6E6E6" stop-opacity="0.48"/>
<stop offset="0.86" stop-color="#F1F1F1" stop-opacity="0.26"/>
<stop offset="1" stop-color="white" stop-opacity="0"/>
</linearGradient>
</defs>
</svg>
