<svg width="450" height="450" viewBox="0 0 450 450" fill="none" xmlns="http://www.w3.org/2000/svg">
<circle cx="225" cy="225" r="188.5" stroke="#FF7A41" stroke-width="9"/>
<path d="M160.107 319.514C158.503 319.514 157.199 317.776 157.199 315.631V305.083C157.199 302.939 158.499 301.2 160.107 301.2C161.715 301.2 163.014 302.939 163.014 305.083V315.631C163.014 317.776 161.715 319.514 160.107 319.514ZM221.082 362.117V351.569C221.082 349.425 219.782 347.686 218.174 347.686C216.566 347.686 215.267 349.425 215.267 351.569V362.117C215.267 364.261 216.566 366 218.174 366C219.782 366 221.082 364.261 221.082 362.117ZM268.243 324.788V314.24C268.243 312.096 266.944 310.357 265.336 310.357C263.728 310.357 262.428 312.096 262.428 314.24V324.788C262.428 326.933 263.728 328.671 265.336 328.671C266.944 328.671 268.243 326.933 268.243 324.788ZM223.989 305.474V294.926C223.989 292.782 222.69 291.043 221.082 291.043C219.473 291.043 218.174 292.782 218.174 294.926V305.474C218.174 307.619 219.473 309.357 221.082 309.357C222.69 309.357 223.989 307.619 223.989 305.474ZM245.133 260.616V239.52C245.133 235.232 242.53 231.754 239.318 231.754C236.107 231.754 233.504 235.232 233.504 239.52V260.616C233.504 264.905 236.107 268.382 239.318 268.382C242.53 268.382 245.133 264.905 245.133 260.616ZM124.227 263.872V242.775C124.227 238.487 121.624 235.009 118.412 235.009C115.2 235.009 112.597 238.487 112.597 242.775V263.872C112.597 268.16 115.2 271.638 118.412 271.638C121.624 271.638 124.227 268.16 124.227 263.872ZM333.98 263.872V242.775C333.98 238.487 331.377 235.009 328.165 235.009C324.954 235.009 322.35 238.487 322.35 242.775V263.872C322.35 268.16 324.954 271.638 328.165 271.638C331.377 271.638 333.98 268.16 333.98 263.872ZM188.916 274.975V259.153C188.916 255.936 186.965 253.328 184.555 253.328C182.145 253.328 180.194 255.936 180.194 259.153V274.975C180.194 278.192 182.145 280.8 184.555 280.8C186.965 280.8 188.916 278.192 188.916 274.975ZM292.754 274.975V259.153C292.754 255.936 290.803 253.328 288.393 253.328C285.983 253.328 284.032 255.936 284.032 259.153V274.975C284.032 278.192 285.983 280.8 288.393 280.8C290.803 280.8 292.754 278.192 292.754 274.975Z" fill="url(#paint0_linear_12_74)"/>
<path d="M128.472 246.654C105.604 246.654 87 228.05 87 205.181C87 195.725 90.2697 186.471 96.2005 179.13C101.697 172.33 109.265 167.404 117.644 165.138C118.277 156.706 121.933 148.867 128.038 142.922C134.22 136.899 142.276 133.446 150.848 133.108C155.499 104.41 180.522 83 209.814 83C235.764 83 258.782 99.8894 266.679 124.386C272.75 121.671 279.41 120.247 286.099 120.247C298.448 120.247 310.151 124.96 319.047 133.518C327.412 141.57 332.483 152.219 333.459 163.704H334.241C357.11 163.704 375.714 182.308 375.714 205.176C375.714 228.045 357.11 246.649 334.241 246.649H128.472V246.654Z" fill="#999999"/>
<path d="M128.473 234.797C112.143 234.797 98.8569 221.51 98.8569 205.181C98.8569 198.328 101.127 191.9 105.42 186.587C109.598 181.419 115.442 177.763 121.875 176.305L129.202 174.638L129.409 167.128C129.574 161.168 132.027 155.585 136.306 151.417C140.595 147.24 146.255 144.941 152.244 144.941L161.223 145.066L162.333 136.508C165.415 112.765 185.83 94.8617 209.814 94.8617C231.311 94.8617 250.296 109.322 255.986 130.022L259.154 141.541L269.77 136.064C274.846 133.441 280.342 132.113 286.099 132.113C295.367 132.113 304.147 135.648 310.822 142.072C317.482 148.476 321.356 157.078 321.737 166.283L322.119 175.571H334.236C350.565 175.571 363.852 188.857 363.852 205.186C363.852 221.515 350.565 234.802 334.236 234.802H128.473V234.797Z" fill="url(#paint1_linear_12_74)"/>
<defs>
<linearGradient id="paint0_linear_12_74" x1="223.289" y1="366" x2="223.289" y2="231.754" gradientUnits="userSpaceOnUse">
<stop stop-color="#158CFF"/>
<stop offset="0.21" stop-color="#29A3FF"/>
<stop offset="0.52" stop-color="#41BFFF"/>
<stop offset="0.8" stop-color="#4FD0FF"/>
<stop offset="1" stop-color="#55D6FF"/>
</linearGradient>
<linearGradient id="paint1_linear_12_74" x1="40.4081" y1="247.929" x2="289.639" y2="157.894" gradientUnits="userSpaceOnUse">
<stop stop-color="#666666"/>
<stop offset="0.19" stop-color="#676767" stop-opacity="0.96"/>
<stop offset="0.39" stop-color="#6A6A6A" stop-opacity="0.83"/>
<stop offset="0.6" stop-color="#6F6F6F" stop-opacity="0.63"/>
<stop offset="0.8" stop-color="#777777" stop-opacity="0.34"/>
<stop offset="1" stop-color="#808080" stop-opacity="0"/>
</linearGradient>
</defs>
</svg>
