<svg width="450" height="450" viewBox="0 0 450 450" fill="none" xmlns="http://www.w3.org/2000/svg">
<circle cx="225" cy="225" r="188.5" stroke="#FF7A41" stroke-width="9"/>
<path d="M312.029 246.34H309.285C308.314 222.863 288.981 204.131 265.268 204.131C257.998 204.131 251.138 205.895 245.093 209.013C238.584 185.341 216.912 167.95 191.177 167.95C162.76 167.95 139.293 189.15 135.734 216.595C135.578 216.595 135.422 216.591 135.266 216.591C118.115 216.591 104.159 230.254 103.686 247.288C86.6871 251.151 74 266.35 74 284.512C74 305.592 91.0883 322.685 112.173 322.685H312.029C333.109 322.685 350.202 305.596 350.202 284.512C350.202 263.432 333.114 246.34 312.029 246.34Z" fill="#E6E6E6"/>
<path d="M112.173 313.276C96.3137 313.276 83.4083 300.371 83.4083 284.512C83.4083 277.857 85.6134 271.611 89.783 266.453C93.8413 261.432 99.5166 257.886 105.762 256.465L112.876 254.848L113.081 247.556C113.242 241.765 115.62 236.348 119.781 232.294C123.946 228.236 129.443 226.004 135.261 226.004L143.979 226.124L145.057 217.816C148.051 194.754 167.879 177.363 191.173 177.363C212.052 177.363 230.495 191.404 236.018 211.512L239.092 222.698L249.4 217.379C254.332 214.836 259.669 213.544 265.264 213.544C274.267 213.544 282.793 216.978 289.279 223.22C295.747 229.443 299.512 237.791 299.881 246.736L300.256 255.757H312.025C327.884 255.757 340.789 268.662 340.789 284.521C340.789 300.38 327.884 313.285 312.025 313.285H112.173V313.276Z" fill="url(#paint0_linear_12_54)"/>
<path d="M288.255 296.495L304.679 268.048H271.83L288.255 296.495Z" fill="url(#paint1_linear_12_54)"/>
<path d="M355.958 268.453L347.458 236.722L324.231 259.949L355.958 268.453Z" fill="url(#paint2_linear_12_54)"/>
<path d="M384 200.746L355.557 184.325V217.17L384 200.746Z" fill="url(#paint3_linear_12_54)"/>
<path d="M355.958 133.042L324.231 141.547L347.458 164.774L355.958 133.042Z" fill="url(#paint4_linear_12_54)"/>
<path d="M288.255 105L271.83 133.448H304.679L288.255 105Z" fill="url(#paint5_linear_12_54)"/>
<path d="M220.552 133.042L229.051 164.774L252.278 141.547L220.552 133.042Z" fill="url(#paint6_linear_12_54)"/>
<path d="M192.509 200.746L220.957 217.17V184.325L192.509 200.746Z" fill="url(#paint7_linear_12_54)"/>
<path d="M220.552 268.453L252.278 259.949L229.051 236.722L220.552 268.453Z" fill="url(#paint8_linear_12_54)"/>
<path d="M288.255 257.98C319.864 257.98 345.489 232.355 345.489 200.746C345.489 169.136 319.864 143.511 288.255 143.511C256.645 143.511 231.02 169.136 231.02 200.746C231.02 232.355 256.645 257.98 288.255 257.98Z" fill="#FFB243"/>
<path d="M288.255 257.98C319.864 257.98 345.489 232.355 345.489 200.746C345.489 169.136 319.864 143.511 288.255 143.511C256.645 143.511 231.02 169.136 231.02 200.746C231.02 232.355 256.645 257.98 288.255 257.98Z" fill="url(#paint9_radial_12_54)"/>
<defs>
<linearGradient id="paint0_linear_12_54" x1="26.6328" y1="326.03" x2="268.707" y2="238.584" gradientUnits="userSpaceOnUse">
<stop stop-color="#CCCCCC"/>
<stop offset="0.13" stop-color="#CDCDCD" stop-opacity="0.98"/>
<stop offset="0.27" stop-color="#D0D0D0" stop-opacity="0.92"/>
<stop offset="0.42" stop-color="#D5D5D5" stop-opacity="0.81"/>
<stop offset="0.56" stop-color="#DCDCDC" stop-opacity="0.67"/>
<stop offset="0.71" stop-color="#E6E6E6" stop-opacity="0.48"/>
<stop offset="0.86" stop-color="#F1F1F1" stop-opacity="0.26"/>
<stop offset="1" stop-color="white" stop-opacity="0"/>
</linearGradient>
<linearGradient id="paint1_linear_12_54" x1="304.679" y1="282.267" x2="271.83" y2="282.267" gradientUnits="userSpaceOnUse">
<stop stop-color="#FED667"/>
<stop offset="0.34" stop-color="#FCC351"/>
<stop offset="0.72" stop-color="#FBB540"/>
<stop offset="1" stop-color="#FBB03B"/>
</linearGradient>
<linearGradient id="paint2_linear_12_54" x1="357.516" y1="246.779" x2="334.288" y2="270.006" gradientUnits="userSpaceOnUse">
<stop stop-color="#FED667"/>
<stop offset="0.34" stop-color="#FCC351"/>
<stop offset="0.72" stop-color="#FBB540"/>
<stop offset="1" stop-color="#FBB03B"/>
</linearGradient>
<linearGradient id="paint3_linear_12_54" x1="369.781" y1="184.325" x2="369.781" y2="217.175" gradientUnits="userSpaceOnUse">
<stop stop-color="#FED667"/>
<stop offset="0.34" stop-color="#FCC351"/>
<stop offset="0.72" stop-color="#FBB540"/>
<stop offset="1" stop-color="#FBB03B"/>
</linearGradient>
<linearGradient id="paint4_linear_12_54" x1="334.29" y1="131.487" x2="357.515" y2="154.712" gradientUnits="userSpaceOnUse">
<stop stop-color="#FED667"/>
<stop offset="0.34" stop-color="#FCC351"/>
<stop offset="0.72" stop-color="#FBB540"/>
<stop offset="1" stop-color="#FBB03B"/>
</linearGradient>
<linearGradient id="paint5_linear_12_54" x1="271.83" y1="119.224" x2="304.679" y2="119.224" gradientUnits="userSpaceOnUse">
<stop stop-color="#FED667"/>
<stop offset="0.34" stop-color="#FCC351"/>
<stop offset="0.72" stop-color="#FBB540"/>
<stop offset="1" stop-color="#FBB03B"/>
</linearGradient>
<linearGradient id="paint6_linear_12_54" x1="218.996" y1="154.716" x2="242.224" y2="131.488" gradientUnits="userSpaceOnUse">
<stop stop-color="#FED667"/>
<stop offset="0.34" stop-color="#FCC351"/>
<stop offset="0.72" stop-color="#FBB540"/>
<stop offset="1" stop-color="#FBB03B"/>
</linearGradient>
<linearGradient id="paint7_linear_12_54" x1="206.729" y1="217.175" x2="206.729" y2="184.325" gradientUnits="userSpaceOnUse">
<stop stop-color="#FED667"/>
<stop offset="0.34" stop-color="#FCC351"/>
<stop offset="0.72" stop-color="#FBB540"/>
<stop offset="1" stop-color="#FBB03B"/>
</linearGradient>
<linearGradient id="paint8_linear_12_54" x1="242.221" y1="270.007" x2="218.996" y2="246.783" gradientUnits="userSpaceOnUse">
<stop stop-color="#FED667"/>
<stop offset="0.34" stop-color="#FCC351"/>
<stop offset="0.72" stop-color="#FBB540"/>
<stop offset="1" stop-color="#FBB03B"/>
</linearGradient>
<radialGradient id="paint9_radial_12_54" cx="0" cy="0" r="1" gradientUnits="userSpaceOnUse" gradientTransform="translate(241.141 160.029) scale(138.315 138.315)">
<stop stop-color="#FED667"/>
<stop offset="0.14" stop-color="#FEDE87" stop-opacity="0.79"/>
<stop offset="0.31" stop-color="#FEE8AB" stop-opacity="0.55"/>
<stop offset="0.48" stop-color="#FEF0C9" stop-opacity="0.35"/>
<stop offset="0.64" stop-color="#FEF6E0" stop-opacity="0.2"/>
<stop offset="0.78" stop-color="#FEFBF1" stop-opacity="0.09"/>
<stop offset="0.91" stop-color="#FEFEFB" stop-opacity="0.02"/>
<stop offset="1" stop-color="white" stop-opacity="0"/>
</radialGradient>
</defs>
</svg>
